<?xml version="1.0" standalone="no"?><!DOCTYPE svg PUBLIC "-//W3C//DTD SVG 1.1//EN" "http://www.w3.org/Graphics/SVG/1.1/DTD/svg11.dtd"><svg t="1519131062703" class="icon" style="" viewBox="0 0 1024 1024" version="1.1" xmlns="http://www.w3.org/2000/svg" p-id="1000" xmlns:xlink="http://www.w3.org/1999/xlink" width="16" height="16"><defs><style type="text/css"></style></defs><path d="M855.903027 561.400463 457.002421 933.283098C427.000478 961.36995 378.630415 961.004819 349.185589 932.452262L87.045522 678.255834C58.072052 650.160348 57.513624 603.882908 85.796115 574.971917L565.999763 84.097076 548.571428 91.428572 877.886948 91.428572C918.232493 91.428572 950.857143 124.131073 950.857143 164.747843L950.857143 481.52381C950.857143 494.989037 961.772866 505.904762 975.238095 505.904762 988.703324 505.904762 999.619049 494.989037 999.619049 481.52381L999.619049 164.747843C999.619049 97.226599 945.189001 42.666667 877.886948 42.666667L548.571428 42.666667C542.012309 42.666667 535.729847 45.30948 531.143093 49.998162L50.939447 540.873001C3.783193 589.077171 4.715564 666.343661 53.100125 713.262025L315.240192 967.458453C363.379925 1014.139405 441.35376 1014.728006 490.290377 968.915004L889.153871 597.067042C899.002925 587.885075 899.543706 572.457385 890.361739 562.608331 881.179772 552.759277 865.752081 552.218496 855.903027 561.400463L855.903027 561.400463Z" p-id="1001" fill="#000000"></path><path d="M743.619049 408.380951C804.212574 408.380951 853.333333 359.260194 853.333333 298.666667 853.333333 238.07314 804.212574 188.952381 743.619049 188.952381 683.025521 188.952381 633.904762 238.07314 633.904762 298.666667 633.904762 359.260194 683.025521 408.380951 743.619049 408.380951L743.619049 408.380951ZM743.619049 359.619049C709.955977 359.619049 682.666667 332.329737 682.666667 298.666667 682.666667 265.003597 709.955977 237.714286 743.619049 237.714286 777.282118 237.714286 804.571428 265.003597 804.571428 298.666667 804.571428 332.329737 777.282118 359.619049 743.619049 359.619049L743.619049 359.619049Z" p-id="1002" fill="#000000"></path></svg>